{
  "accessors": [
    {
      "bufferView": 0,
      "byteOffset": 0,
      "componentType": 5126,
      "count": 2520,
      "max": [0.494537, 0.5, 0.497261],
      "min": [-0.494537, -0.5, -0.497261],
      "normalized": false,
      "type": "VEC3"
    },
    {
      "bufferView": 1,
      "byteOffset": 0,
      "componentType": 5126,
      "count": 2520,
      "max": [0.99994, 0.050506, 1, 1],
      "min": [-1, -0.053824, -1, 1],
      "normalized": false,
      "type": "VEC4"
    },
    {
      "bufferView": 2,
      "byteOffset": 0,
      "componentType": 5126,
      "count": 2520,
      "max": [0.98911, 0.994466, 0.994522],
      "min": [-0.989115, -0.994466, -0.994523],
      "normalized": false,
      "type": "VEC3"
    },
    {
      "bufferView": 3,
      "byteOffset": 0,
      "componentType": 5126,
      "count": 2520,
      "max": [1, 1],
      "min": [0, 0],
      "normalized": false,
      "type": "VEC2"
    },
    {
      "bufferView": 4,
      "byteOffset": 0,
      "componentType": 5125,
      "count": 2520,
      "max": [2519],
      "min": [0],
      "normalized": false,
      "type": "SCALAR"
    }
  ],
  "asset": {
    "generator": "Godot Engine v4.0.beta6.official@7f8ecffa56834dce3ccbd736738b613d51133dea",
    "version": "2.0"
  },
  "bufferViews": [
    { "buffer": 0, "byteLength": 30240, "byteOffset": 0 },
    { "buffer": 0, "byteLength": 40320, "byteOffset": 30240 },
    { "buffer": 0, "byteLength": 30240, "byteOffset": 70560 },
    { "buffer": 0, "byteLength": 20160, "byteOffset": 100800 },
    { "buffer": 0, "byteLength": 10080, "byteOffset": 120960 }
  ],
  "buffers": [{ "byteLength": 131040, "uri": "Medef-Sphere0.bin" }],
  "materials": [
    {
      "pbrMetallicRoughness": {
        "baseColorFactor": [
          0.99999988079071, 0.99999988079071, 0.99999988079071, 1
        ],
        "metallicFactor": 0,
        "roughnessFactor": 1
      }
    }
  ],
  "meshes": [
    {
      "extras": { "targetNames": [] },
      "primitives": [
        {
          "attributes": {
            "NORMAL": 2,
            "POSITION": 0,
            "TANGENT": 1,
            "TEXCOORD_0": 3
          },
          "indices": 4,
          "material": 0,
          "mode": 4
        }
      ]
    }
  ],
  "nodes": [{ "extensions": {}, "mesh": 0, "name": "Node3D2" }],
  "scene": 0,
  "scenes": [{ "nodes": [0] }]
}
